PathFileType	4	(X/Y/Z)	C:/Users/beibeiliu/ov580/test_trc/User3\sequence.34_training_dense_left.trc
DataRate	CameraRate	NumFrames	NumMarkers	Units	OrigDataRate	OrigDataStartFrame	OrigNumFrames
120	120	15	19	mm	120	101	126
Frame#	Time	ThumbCMC			ThumbMCP			ThumbIP			ThumbTip			IndexMCP			IndexPIP			IndexTip			MiddleMCP			MiddlePIP			MiddleTip			RingMCP			RingPIP			RingTip			PinkyMCP			PinkyPIP			PinkyTip			BackHand1			BackHand2			BackHand3	
		X0	Y0	Z0	X1	Y1	Z1	X2	Y2	Z2	X3	Y3	Z3	X4	Y4	Z4	X5	Y5	Z5	X6	Y6	Z6	X7	Y7	Z7	X8	Y8	Z8	X9	Y9	Z9	X10	Y10	Z10	X11	Y11	Z11	X12	Y12	Z12	X13	Y13	Z13	X14	Y14	Z14	X15	Y15	Z15	X16	Y16	Z16	X17	Y17	Z17	X18	Y18	Z18	
100	0.833333	-139.86	53.4284	-31.0969	-124.27	72.4924	-52.4906	-111.705	87.58	-69.4481	-103.918	102.657	-80.5821	-90.556	14.8263	-85.8653	-69.8085	7.76843	-98.1758	-45.5889	-2.65434	-111.29	-70.4753	1.75565	-64.3722	-54.4573	15.5286	-41.9657	-91.1297	27.6164	-25.8342	-77.3117	-9.2116	-48.3819	-65.6307	6.35738	-24.8075	-99.0251	16.9842	-16.2703	-81.3691	-23.2178	-33.4872	-72.8441	-2.94928	-17.1716	-101.271	6.50739	-8.97286	-134.374	-13.4441	-46.0843	-158.272	-2.90963	-22.5908	-146.177	24.4059	-46.4672	
101	0.841667	-143.188	50.6878	-37.8707	-135.607	66.9865	-54.7858	-128.226	83.4256	-77.3825	-127.339	99.4747	-91.6275	-86.7481	25.6365	-88.0101	-66.1769	25.9678	-100.942	-38.8688	20.3795	-114.008	-67.5398	21.2228	-67.4227	-53.4077	42.0259	-43.9014	-86.4671	39.1919	-28.0111	-63.7577	12.1445	-50.3699	-59.98	30.7359	-24.3847	-91.8152	30.1199	-19.0679	-63.4515	-2.13671	-34.6034	-60.859	20.5765	-21.0142	-92.3613	18.4872	-10.7947	-118.445	-11.483	-43.2841	-137.623	-10.2433	-20.6209	-140.422	18.31	-49.1794	
102	0.85	-148.047	41.0041	-39.3103	-149.212	56.3509	-62.8808	-148.427	70.7634	-84.3421	-151.988	84.2103	-101.421	-88.8706	29.6911	-96.7514	-70.3988	34.1936	-111.095	-48.923	35.5039	-122.431	-65.1975	33.8998	-75.3293	-60.4538	62.367	-59.2492	-90.1315	48.9496	-36.4647	-59.5565	25.8029	-56.0425	-60.9504	49.9998	-36.6357	-89.5603	37.3855	-25.4301	-57.4262	15.5329	-42.7566	-60.3683	40.37	-29.5959	-85.5026	26.9538	-16.2858	-102.652	-10.323	-42.6927	-123.448	-10.7602	-20.3773	-133.105	8.79727	-46.6632	
103	0.858333	-148.509	26.7483	-36.8099	-158.014	36.2417	-60.6281	-168.989	46.7548	-86.0694	-177.15	54.7542	-104.317	-99.014	19.8221	-100.532	-83.1153	26.3245	-120.591	-65.8269	32.4755	-139.084	-77.1104	34.3007	-86.9347	-74.4397	63.5435	-71.2235	-97.9548	49.4387	-47.405	-67.9453	31.5717	-70.4495	-69.5987	55.9605	-52.7986	-94.1146	37.4873	-36.2288	-58.0431	24.5616	-55.4087	-67.0118	47.7353	-42.8383	-88.0314	29.9568	-26.0585	-96.3358	-11.1922	-44.5428	-112.255	-15.0922	-18.6787	-130.226	-0.87266	-44.2113	
104	0.866667	-156.831	9.60487	-32.1846	-168.675	13.8566	-59.4905	-185.752	18.4889	-82.9088	-198.895	21.1574	-101.56	-116.6	-3.87	-103.73	-101.923	-0.459041	-127.11	-86.9678	2.31621	-148.505	-91.9096	14.9352	-95.0703	-91.4655	46.7816	-88.444	-111.943	31.9565	-55.6317	-78.8725	18.7708	-81.6393	-82.2515	43.6696	-69.3997	-104.062	28.5957	-45.5695	-69.8429	10.9684	-64.3771	-77.6364	37.5165	-57.0771	-92.983	23.9276	-33.0664	-99.8176	-25.7568	-44.1862	-111.099	-27.2932	-10.6365	-138.781	-14.7262	-38.8526	
105	0.875	-170.221	-6.25006	-29.0194	-187.565	-1.84907	-49.8179	-202.804	-1.16681	-74.699	-216.86	3.42241	-86.6264	-146.41	-31.9373	-99.3714	-135.439	-35.3443	-121.261	-126.235	-37.4538	-150.176	-121.901	-14.9982	-100.172	-114.054	16.5335	-101.241	-128.392	15.7875	-62.4371	-104.166	-14.3357	-84.9314	-103.093	19.0169	-79.1909	-119.617	9.97835	-49.1794	-87.1521	-12.8879	-71.5276	-92.273	14.0082	-67.1426	-109.487	7.85263	-43.6394	-122.764	-43.5361	-40.3697	-127.278	-39.8524	-7.41886	-150.99	-32.669	-34.2402	
106	0.883333	-186.923	4.32649	-21.0476	-201.678	12.9088	-40.2542	-218.304	16.424	-65.3588	-232.066	22.6003	-83.8404	-181.875	-38.2967	-93.202	-180.093	-45.4436	-116.539	-174.477	-51.1597	-141.358	-150.74	-30.8936	-99.7781	-135.303	-4.81555	-103.362	-139.107	1.33636	-63.0797	-134.465	-34.3377	-84.9769	-118.092	-7.97792	-84.0332	-128.867	-2.74755	-52.8001	-118.281	-35.6969	-75.9108	-108.584	-11.1116	-70.2519	-124.215	-10.3482	-40.2175	-151.632	-53.2724	-36.012	-151.342	-44.3238	-1.40803	-179.965	-27.9382	-23.7785	
107	0.891667	-180.537	25.2913	-17.1454	-192.687	39.2688	-42.2858	-202.537	52.6258	-60.9753	-212.402	66.4569	-78.3901	-210.545	-8.91188	-82.762	-215.602	-18.5039	-107.786	-216.256	-27.5783	-133.283	-180.626	-23.9922	-95.0986	-153.022	-9.47007	-101.249	-149.292	-1.78959	-66.0631	-165.22	-36.1	-82.6086	-138.144	-24.1483	-83.8494	-143.984	-7.62842	-52.9062	-154.718	-47.0476	-72.7859	-135.307	-28.9704	-71.8043	-142.568	-17.3912	-43.9922	-188.207	-41.5669	-29.4144	-179.61	-32.6158	2.72255	-198.462	-5.16611	-18.4403	
108	0.9	-164.092	42.2599	-16.5914	-164.779	57.4258	-41.2084	-164.854	78.6978	-60.2674	-162.47	92.168	-75.2627	-212.008	32.3921	-79.883	-223.53	29.4832	-103.912	-231.404	27.1323	-131.745	-195.504	5.11116	-94.4849	-163.653	-1.73788	-99.4108	-157.604	5.58171	-62.4824	-187.442	-17.0571	-83.9025	-159.83	-21.3214	-82.9925	-156.787	-6.45102	-51.201	-185.99	-31.8503	-71.6517	-157.844	-28.4941	-69.1943	-156.577	-14.9884	-44.6637	-209.45	-5.14378	-27.6697	-198.287	-5.0412	2.21325	-194.894	25.0755	-18.6165	
109	0.908333	-145.895	46.0798	-22.1093	-133.526	62.8434	-41.5344	-126.067	76.6622	-63.0707	-117.348	91.5433	-79.3745	-194.107	57.6455	-83.8595	-201.804	62.8152	-104.034	-211.301	66.1722	-127.536	-191.491	27.8598	-91.7694	-165.707	6.66459	-102.284	-158.568	7.07169	-65.9008	-194.137	6.42194	-84.5404	-168.294	-10.6164	-82.1312	-162.023	-3.22138	-53.1302	-199.62	-10.2947	-74.7863	-172.563	-15.9855	-72.6177	-167.174	-9.88111	-43.2108	-206.481	23.0461	-27.0056	-196.095	20.0711	2.58369	-178.77	46.4684	-17.3971	
110	0.916667	-123.366	42.3081	-22.9002	-107.661	55.1017	-48.053	-96.1646	64.8551	-69.2867	-85.6716	73.0459	-85.6062	-166.047	69.3018	-88.635	-175.362	75.4111	-112.618	-180.941	83.2838	-131.671	-174.338	38.8182	-99.2817	-160.32	10.0269	-104.937	-150.972	12.8412	-64.6426	-184.373	22.603	-88.4483	-168.308	-3.26884	-87.3736	-159.501	2.02411	-54.7756	-194.91	10.4051	-77.6171	-175.106	-7.41456	-75.7293	-167.585	-0.731612	-49.1856	-192.195	41.7618	-32.0168	-183.87	34.3369	-2.03051	-156.553	55.2981	-22.6321	
111	0.925	-106.902	36.2486	-30.0773	-89.6788	39.0032	-49.5666	-72.8831	46.2464	-72.3438	-57.7506	49.3829	-87.5372	-138.701	67.4031	-98.2761	-144.816	73.5295	-120.055	-151.488	81.1449	-144.794	-154.151	40.6143	-106.925	-149.795	9.51906	-110.339	-141.739	9.84147	-70.1459	-170.951	25.6138	-93.4237	-161.853	-2.49891	-90.3241	-150.694	3.48067	-59.1374	-186.402	19.493	-81.0931	-170.771	-5.36305	-79.8533	-160.289	3.41945	-47.5231	-170.67	53.4796	-44.7464	-164.435	44.789	-10.6773	-137.77	54.3011	-29.4403	
112	0.933333	-91.3732	28.6767	-34.2313	-73.8196	27.4586	-57.4863	-57.6548	27.8695	-78.8465	-40.2131	26.4103	-93.4555	-117.233	56.2812	-108.354	-119.1	60.6746	-135.337	-126.016	65.9252	-159.954	-142.848	33.0336	-110.629	-135.725	0.560241	-115.898	-129.127	0.71957	-76.6503	-156.673	20.5156	-100.9	-151.718	-6.9429	-93.3701	-139.319	0.550197	-63.2882	-170.656	15.9999	-89.4919	-159.983	-4.83979	-83.2107	-149.935	5.63526	-54.0354	-155.16	53.5788	-50.4332	-149.848	48.9961	-21.9427	-120.193	53.64	-40.8149	
113	0.941667	-82.3773	19.6544	-41.1419	-66.1066	13.171	-57.3152	-46.0965	7.55572	-79.3367	-29.9558	2.80336	-93.8234	-103.932	37.7985	-115.533	-105.509	38.4492	-144.661	-107.926	39.1724	-169.132	-133.125	14.192	-118.494	-128.814	-15.6093	-115.115	-124.228	-5.83232	-72.9814	-146.322	8.44932	-105.413	-143.473	-16.8562	-92.9004	-133.035	-3.91109	-60.5853	-163.16	10.164	-91.5421	-153.852	-14.5553	-78.0473	-144.153	2.02749	-52.4234	-139.348	49.7122	-63.2505	-142.135	48.94	-28.7328	-107.379	44.8912	-46.5531	
114	0.95	-82.5278	9.69155	-36.167	-61.7319	-1.68035	-58.618	-42.564	-10.9136	-77.2205	-29.5318	-20.2152	-87.7401	-96.0268	18.64	-117.575	-96.456	12.4397	-144.564	-101.309	9.78088	-166.068	-122.448	-1.57957	-115.581	-128.115	-33.468	-104.095	-119.853	-23.9518	-70.7615	-144.479	-7.13253	-103.134	-142.41	-29.511	-87.5784	-130.743	-16.8915	-58.0072	-156.979	0.846054	-90.7218	-149.879	-23.747	-77.3383	-142.268	-8.15636	-51.0887	-135.689	39.361	-63.2005	-137.177	43.1006	-36.2755	-104.199	36.7601	-49.3449	
